<svg version="1.1" xmlns="http://www.w3.org/2000/svg" xmlns:xlink="http://www.w3.org/1999/xlink" width="1520" height="358" viewBox="0 0 1520 358"><defs/><g transform="matrix(1,0,0,1,0,0)"><g><g><g><path fill="none" stroke="#d3d3d3" paint-order="fill stroke markers" d=" M 0 0 L 1200 0" stroke-miterlimit="10" stroke-opacity="0.8" stroke-dasharray="5"/></g><g><path fill="none" stroke="#d3d3d3" paint-order="fill stroke markers" d=" M 0 0 L 0 800" stroke-miterlimit="10" stroke-opacity="0.8" stroke-dasharray="5"/></g></g><g id="_7988950F-C6AF-4B60-8CA1-39A6CC8294EB" bpmn2nodeid="_7988950F-C6AF-4B60-8CA1-39A6CC8294EB" transform="matrix(1,0,0,1,1414,229)"><g><path fill="none" stroke="none"/></g><g transform="matrix(0.125,0,0,0.125,0,0)"><g transform="matrix(1,0,0,1,0,0)"><path fill="#fce7e7" stroke="none" id="_7988950F-C6AF-4B60-8CA1-39A6CC8294EB?shapeType=BACKGROUND" paint-order="stroke fill markers" d=" M 0 0 M 444 224 C 444 263.9 434.2 300.8 414.4 334.5 C 394.7 368.2 368 394.9 334.4 414.5 C 300.79999999999995 434.1 263.9 444 224 444 C 184.10000000000002 444 147.2 434.2 113.5 414.4 C 79.8 394.7 53.1 368 33.5 334.4 C 13.899999999999999 300.79999999999995 4 263.9 4 224 C 4 184.10000000000002 13.8 147.2 33.6 113.5 C 53.400000000000006 79.80000000000001 80.1 53.1 113.6 33.5 C 147.1 13.899999999999999 184.1 4 224 4 C 263.9 4 300.8 13.8 334.5 33.6 C 368.2 53.400000000000006 394.9 80.1 414.5 113.6 C 434.1 147.1 444 184.1 444 224 Z"/></g><g><g transform="matrix(1,0,0,1,0,0)"><g transform="matrix(1,0,0,1,0,0)"><path fill="#a30000" stroke="none" id="_7988950F-C6AF-4B60-8CA1-39A6CC8294EB?shapeType=BORDER&amp;renderType=FILL" paint-order="stroke fill markers" d=" M 0 0 M 224 0 C 100.3 0 0 100.3 0 224 C 0 347.7 100.3 448 224 448 C 347.7 448 448 347.7 448 224 C 448 100.30000000000001 347.7 0 224 0 Z M 0 0 M 224 400 C 126.8 400 48 321.2 48 224 C 48 126.80000000000001 126.8 48 224 48 C 321.2 48 400 126.8 400 224 C 400 321.2 321.2 400 224 400 Z"/></g></g></g></g><g transform="matrix(1,0,0,1,28,61)"/></g><g id="_2836A880-C336-4BDF-9B66-31D19D0F5C55" bpmn2nodeid="_2836A880-C336-4BDF-9B66-31D19D0F5C55" transform="matrix(1,0,0,1,120,229)"><g><path fill="none" stroke="none"/></g><g transform="matrix(0.125,0,0,0.125,0,0)"><g transform="matrix(1,0,0,1,0,0)"><path fill="#e8fae6" stroke="none" id="_2836A880-C336-4BDF-9B66-31D19D0F5C55?shapeType=BACKGROUND" paint-order="stroke fill markers" d=" M 0 0 M 444 224 C 444 263.9 434.2 300.8 414.4 334.5 C 394.7 368.2 368 394.9 334.4 414.5 C 300.79999999999995 434.1 263.9 444 224 444 C 184.10000000000002 444 147.2 434.2 113.5 414.4 C 79.8 394.7 53.1 368 33.5 334.4 C 13.899999999999999 300.79999999999995 4 263.9 4 224 C 4 184.10000000000002 13.8 147.2 33.6 113.5 C 53.400000000000006 79.80000000000001 80.1 53.1 113.6 33.5 C 147.1 13.899999999999999 184.1 4 224 4 C 263.9 4 300.8 13.8 334.5 33.6 C 368.2 53.400000000000006 394.9 80.1 414.5 113.6 C 434.1 147.1 444 184.1 444 224 Z"/></g><g><g transform="matrix(1,0,0,1,0,0)"><g transform="matrix(1,0,0,1,0,0)"><path fill="#4aa241" stroke="none" id="_2836A880-C336-4BDF-9B66-31D19D0F5C55?shapeType=BORDER&amp;renderType=FILL" paint-order="stroke fill markers" d=" M 0 0 M 224 0 C 100.3 0 0 100.3 0 224 C 0 347.7 100.3 448 224 448 C 347.7 448 448 347.7 448 224 C 448 100.30000000000001 347.7 0 224 0 Z M 0 0 M 224 432 C 109.1 432 16 338.9 16 224 C 16 109.10000000000002 109.1 16 224 16 C 338.9 16 432 109.1 432 224 C 432 338.9 338.9 432 224 432 Z"/></g></g></g></g><g transform="matrix(1,0,0,1,28,61)"/></g><g id="_DE223F3D-D928-4F08-B97C-6B640548A3EE" bpmn2nodeid="_DE223F3D-D928-4F08-B97C-6B640548A3EE" transform="matrix(1,0,0,1,729.5,207)"><g><path fill="none" stroke="none"/></g><g transform="matrix(1,0,0,1,0,0)"><path fill="#ffffff" stroke="none" id="_DE223F3D-D928-4F08-B97C-6B640548A3EE?shapeType=BACKGROUND" paint-order="stroke fill markers" d=" M 2 0 L 151 0 L 151 0 A 2 2 0 0 1 153 2 L 153 99 L 153 99 A 2 2 0 0 1 151 101 L 2 101 L 2 101 A 2 2 0 0 1 0 99 L 0 2 L 0 2.0000000000000004 A 2 2 0 0 1 1.9999999999999996 0 Z"/></g><g transform="matrix(1,0,0,1,0,0)"><path fill="none" stroke="#393f44" id="_DE223F3D-D928-4F08-B97C-6B640548A3EE?shapeType=BORDER&amp;renderType=STROKE" paint-order="fill stroke markers" d=" M 2 0 L 151 0 L 151 0 A 2 2 0 0 1 153 2 L 153 99 L 153 99 A 2 2 0 0 1 151 101 L 2 101 L 2 101 A 2 2 0 0 1 0 99 L 0 2 L 0 2.0000000000000004 A 2 2 0 0 1 1.9999999999999996 0 Z" stroke-miterlimit="10" stroke-width="1.5" stroke-dasharray=""/></g><g transform="matrix(1,0,0,1,1,10)"><g transform="matrix(1,0,0,1,0,0)"><g transform="matrix(1,0,0,1,63,66)"><path fill="none" stroke="#393f44" id="_DE223F3D-D928-4F08-B97C-6B640548A3EEundefined" paint-order="fill stroke markers" d=" M 0 0 L 25 0 L 25 25 L 0 25 L 0 0 Z Z" stroke-miterlimit="10" stroke-width="1.5" stroke-dasharray=""/></g><g transform="matrix(0.04,0,0,0.04,68.64,69.6)"><path fill="#000000" stroke="#000000" id="_DE223F3D-D928-4F08-B97C-6B640548A3EEundefined" paint-order="fill stroke markers" d=" M 0 0 M 352 184 L 352 232 C 352 238.7 349.7 244.3 345 249 C 340.3 253.7 334.7 256 328 256 L 224 256 L 224 360 C 224 366.7 221.7 372.3 217 377 C 212.3 381.7 206.7 384 200 384 L 152 384 C 145.3 384 139.7 381.7 135 377 C 130.3 372.3 128 366.7 128 360 L 128 256 L 24 256 C 17.3 256 11.7 253.7 7 249 C 2.3000000000000007 244.3 0 238.7 0 232 L 0 184 C 0 177.3 2.3 171.7 7 167 C 11.7 162.3 17.3 160 24 160 L 128 160 L 128 56 C 128 49.3 130.3 43.7 135 39 C 139.7 34.3 145.3 32 152 32 L 200 32 C 206.7 32 212.3 34.3 217 39 C 221.7 43.7 224 49.3 224 56 L 224 160 L 328 160 C 334.7 160 340.3 162.3 345 167 C 349.7 171.7 352 177.3 352 184 Z" stroke-miterlimit="10" stroke-dasharray=""/></g></g></g><g transform="matrix(1,0,0,1,12.82,10)"><g transform="matrix(1,0,0,1,0,0)"><g transform="matrix(1,0,0,1,63,66)"><path fill="none" stroke="none"/></g><g transform="matrix(0.04,0,0,0.04,68.64,69.6)"><path fill="none" stroke="none"/></g><g transform="matrix(0.04,0,0,0.04,40.32,71.04)"><path fill="none" stroke="none"/></g><g transform="matrix(0.04,0,0,0.04,39.36,72)"><path fill="none" stroke="none"/></g></g></g><g transform="matrix(1,0,0,1,7.5,35.5)"><text fill="#000000" stroke="none" font-family="Open Sans" font-size="12pt" font-style="normal" font-weight="normal" text-decoration="normal" x="69" y="12" text-anchor="middle" dominant-baseline="alphabetic">Retrieve Assigned </text><text fill="#000000" stroke="none" font-family="Open Sans" font-size="12pt" font-style="normal" font-weight="normal" text-decoration="normal" x="69" y="27" text-anchor="middle" dominant-baseline="alphabetic">        Attributes        </text></g></g><g id="_49BD6CD5-5A89-418A-A347-81880AE51752" bpmn2nodeid="_49BD6CD5-5A89-418A-A347-81880AE51752" transform="matrix(1,0,0,1,279,207)"><g><path fill="none" stroke="none"/></g><g transform="matrix(1,0,0,1,0,0)"><path fill="#ffffff" stroke="none" id="_49BD6CD5-5A89-418A-A347-81880AE51752?shapeType=BACKGROUND" paint-order="stroke fill markers" d=" M 2 0 L 151 0 L 151 0 A 2 2 0 0 1 153 2 L 153 99 L 153 99 A 2 2 0 0 1 151 101 L 2 101 L 2 101 A 2 2 0 0 1 0 99 L 0 2 L 0 2.0000000000000004 A 2 2 0 0 1 1.9999999999999996 0 Z"/></g><g transform="matrix(1,0,0,1,0,0)"><path fill="none" stroke="#393f44" id="_49BD6CD5-5A89-418A-A347-81880AE51752?shapeType=BORDER&amp;renderType=STROKE" paint-order="fill stroke markers" d=" M 2 0 L 151 0 L 151 0 A 2 2 0 0 1 153 2 L 153 99 L 153 99 A 2 2 0 0 1 151 101 L 2 101 L 2 101 A 2 2 0 0 1 0 99 L 0 2 L 0 2.0000000000000004 A 2 2 0 0 1 1.9999999999999996 0 Z" stroke-miterlimit="10" stroke-width="1.5" stroke-dasharray=""/></g><g transform="matrix(1,0,0,1,1,10)"><g transform="matrix(1,0,0,1,0,0)"><g transform="matrix(1,0,0,1,63,66)"><path fill="none" stroke="#393f44" id="_49BD6CD5-5A89-418A-A347-81880AE51752undefined" paint-order="fill stroke markers" d=" M 0 0 L 25 0 L 25 25 L 0 25 L 0 0 Z Z" stroke-miterlimit="10" stroke-width="1.5" stroke-dasharray=""/></g><g transform="matrix(0.04,0,0,0.04,68.64,69.6)"><path fill="#000000" stroke="#000000" id="_49BD6CD5-5A89-418A-A347-81880AE51752undefined" paint-order="fill stroke markers" d=" M 0 0 M 352 184 L 352 232 C 352 238.7 349.7 244.3 345 249 C 340.3 253.7 334.7 256 328 256 L 224 256 L 224 360 C 224 366.7 221.7 372.3 217 377 C 212.3 381.7 206.7 384 200 384 L 152 384 C 145.3 384 139.7 381.7 135 377 C 130.3 372.3 128 366.7 128 360 L 128 256 L 24 256 C 17.3 256 11.7 253.7 7 249 C 2.3000000000000007 244.3 0 238.7 0 232 L 0 184 C 0 177.3 2.3 171.7 7 167 C 11.7 162.3 17.3 160 24 160 L 128 160 L 128 56 C 128 49.3 130.3 43.7 135 39 C 139.7 34.3 145.3 32 152 32 L 200 32 C 206.7 32 212.3 34.3 217 39 C 221.7 43.7 224 49.3 224 56 L 224 160 L 328 160 C 334.7 160 340.3 162.3 345 167 C 349.7 171.7 352 177.3 352 184 Z" stroke-miterlimit="10" stroke-dasharray=""/></g></g></g><g transform="matrix(1,0,0,1,12.82,10)"><g transform="matrix(1,0,0,1,0,0)"><g transform="matrix(1,0,0,1,63,66)"><path fill="none" stroke="none"/></g><g transform="matrix(0.04,0,0,0.04,68.64,69.6)"><path fill="none" stroke="none"/></g><g transform="matrix(0.04,0,0,0.04,40.32,71.04)"><path fill="none" stroke="none"/></g><g transform="matrix(0.04,0,0,0.04,39.36,72)"><path fill="none" stroke="none"/></g></g></g><g transform="matrix(1,0,0,1,28.5,35.5)"><text fill="#000000" stroke="none" font-family="Open Sans" font-size="12pt" font-style="normal" font-weight="normal" text-decoration="normal" x="48" y="12" text-anchor="middle" dominant-baseline="alphabetic">Get Product </text><text fill="#000000" stroke="none" font-family="Open Sans" font-size="12pt" font-style="normal" font-weight="normal" text-decoration="normal" x="48" y="27" text-anchor="middle" dominant-baseline="alphabetic">  Highlights   </text></g></g><g id="_77DFF52A-8931-48C0-AA9D-D269A8F09770" bpmn2nodeid="_77DFF52A-8931-48C0-AA9D-D269A8F09770" transform="matrix(1,0,0,1,515,206)"><g><path fill="none" stroke="none"/></g><g transform="matrix(1,0,0,1,0,0)"><path fill="#ffffff" stroke="none" id="_77DFF52A-8931-48C0-AA9D-D269A8F09770?shapeType=BACKGROUND" paint-order="stroke fill markers" d=" M 2 0 L 151 0 L 151 0 A 2 2 0 0 1 153 2 L 153 99 L 153 99 A 2 2 0 0 1 151 101 L 2 101 L 2 101 A 2 2 0 0 1 0 99 L 0 2 L 0 2.0000000000000004 A 2 2 0 0 1 1.9999999999999996 0 Z"/></g><g transform="matrix(1,0,0,1,0,0)"><path fill="none" stroke="rgb(57,63,68)" id="_77DFF52A-8931-48C0-AA9D-D269A8F09770?shapeType=BORDER&amp;renderType=STROKE" paint-order="fill stroke markers" d=" M 2 0 L 151 0 L 151 0 A 2 2 0 0 1 153 2 L 153 99 L 153 99 A 2 2 0 0 1 151 101 L 2 101 L 2 101 A 2 2 0 0 1 0 99 L 0 2 L 0 2.0000000000000004 A 2 2 0 0 1 1.9999999999999996 0 Z" stroke-miterlimit="10" stroke-width="1.5" stroke-dasharray=""/></g><g transform="matrix(1,0,0,1,1,10)"><g transform="matrix(1,0,0,1,0,0)"><g transform="matrix(1,0,0,1,63,66)"><path fill="none" stroke="#393f44" id="_77DFF52A-8931-48C0-AA9D-D269A8F09770undefined" paint-order="fill stroke markers" d=" M 0 0 L 25 0 L 25 25 L 0 25 L 0 0 Z Z" stroke-miterlimit="10" stroke-width="1.5" stroke-dasharray=""/></g><g transform="matrix(0.04,0,0,0.04,68.64,69.6)"><path fill="#000000" stroke="#000000" id="_77DFF52A-8931-48C0-AA9D-D269A8F09770undefined" paint-order="fill stroke markers" d=" M 0 0 M 352 184 L 352 232 C 352 238.7 349.7 244.3 345 249 C 340.3 253.7 334.7 256 328 256 L 224 256 L 224 360 C 224 366.7 221.7 372.3 217 377 C 212.3 381.7 206.7 384 200 384 L 152 384 C 145.3 384 139.7 381.7 135 377 C 130.3 372.3 128 366.7 128 360 L 128 256 L 24 256 C 17.3 256 11.7 253.7 7 249 C 2.3000000000000007 244.3 0 238.7 0 232 L 0 184 C 0 177.3 2.3 171.7 7 167 C 11.7 162.3 17.3 160 24 160 L 128 160 L 128 56 C 128 49.3 130.3 43.7 135 39 C 139.7 34.3 145.3 32 152 32 L 200 32 C 206.7 32 212.3 34.3 217 39 C 221.7 43.7 224 49.3 224 56 L 224 160 L 328 160 C 334.7 160 340.3 162.3 345 167 C 349.7 171.7 352 177.3 352 184 Z" stroke-miterlimit="10" stroke-dasharray=""/></g></g></g><g transform="matrix(1,0,0,1,12.82,10)"><g transform="matrix(1,0,0,1,0,0)"><g transform="matrix(1,0,0,1,63,66)"><path fill="none" stroke="none"/></g><g transform="matrix(0.04,0,0,0.04,68.64,69.6)"><path fill="none" stroke="none"/></g><g transform="matrix(0.04,0,0,0.04,40.32,71.04)"><path fill="none" stroke="none"/></g><g transform="matrix(0.04,0,0,0.04,39.36,72)"><path fill="none" stroke="none"/></g></g></g><g transform="matrix(1,0,0,1,12,35.5)"><text fill="#000000" stroke="none" font-family="Open Sans" font-size="12pt" font-style="normal" font-weight="normal" text-decoration="normal" x="64.5" y="12" text-anchor="middle" dominant-baseline="alphabetic">    Get Product     </text><text fill="#000000" stroke="none" font-family="Open Sans" font-size="12pt" font-style="normal" font-weight="normal" text-decoration="normal" x="64.5" y="27" text-anchor="middle" dominant-baseline="alphabetic">Offering Instance</text></g></g><g id="_69222BCC-76DB-45BD-9093-01E66945931E" bpmn2nodeid="_69222BCC-76DB-45BD-9093-01E66945931E"><g><path fill="none" stroke="#000000" paint-order="fill stroke markers" d=" M 176 257.10687022900765 L 264.00010925817344 257.442748508619" stroke-miterlimit="10" stroke-dasharray=""/></g><g transform="matrix(1,0,0,1,176,257.10687022900765)"/><g transform="matrix(-0.003816766092067245,0.9999927161217718,-0.9999927161217718,-0.003816766092067245,279.0190838304603,252.50003641939114)"><path fill="#000000" stroke="#000000" paint-order="fill stroke markers" d=" M 10 15 L 0 15 L 5 0 Z" stroke-miterlimit="10" stroke-dasharray=""/></g><g transform="matrix(1,0,0,1,176.03816766092066,247.3035079532861)"/></g><g id="_286E2B06-7769-448E-884E-931E8007C9BB" bpmn2nodeid="_286E2B06-7769-448E-884E-931E8007C9BB"><g><path fill="none" stroke="#000000" paint-order="fill stroke markers" d=" M 432 257.02037617554856 L 500.0002947997327 256.59404203887317" stroke-miterlimit="10" stroke-dasharray=""/></g><g transform="matrix(1,0,0,1,432,257.02037617554856)"/><g transform="matrix(0.0062694692582113114,0.9999803466844838,-0.9999803466844838,0.0062694692582113114,514.9686526537089,251.5000982665776)"><path fill="#000000" stroke="#000000" paint-order="fill stroke markers" d=" M 10 15 L 0 15 L 5 0 Z" stroke-miterlimit="10" stroke-dasharray=""/></g><g transform="matrix(1,0,0,1,432.0626946925821,246.76038462092944)"/></g><g id="_5FD21B54-2689-47C7-AB29-8FFC325D3BC8" bpmn2nodeid="_5FD21B54-2689-47C7-AB29-8FFC325D3BC8"><g><path fill="none" stroke="#000000" paint-order="fill stroke markers" d=" M 668 257.05434782608694 L 714.5003938093176 257.3913072015168" stroke-miterlimit="10" stroke-dasharray=""/></g><g transform="matrix(1,0,0,1,668,257.05434782608694)"/><g transform="matrix(-0.00724618656554782,0.9999737460454936,-0.9999737460454936,-0.00724618656554782,729.5362309328277,252.50013126977254)"><path fill="#000000" stroke="#000000" paint-order="fill stroke markers" d=" M 10 15 L 0 15 L 5 0 Z" stroke-miterlimit="10" stroke-dasharray=""/></g><g transform="matrix(1,0,0,1,668.0724618656554,247.27743645258857)"/></g><g id="_0B32FEF0-7C74-429A-B679-A3637A016E09" bpmn2nodeid="_0B32FEF0-7C74-429A-B679-A3637A016E09"><g><path fill="none" stroke="#000000" paint-order="fill stroke markers" d=" M 882.5 257.5 L 935 257 L 1399 257" stroke-miterlimit="10" stroke-dasharray=""/></g><g transform="matrix(1,0,0,1,882.5,257.5)"/><g transform="matrix(6.123233995736766e-17,1,-1,6.123233995736766e-17,1414,252)"><path fill="#000000" stroke="#000000" paint-order="fill stroke markers" d=" M 10 15 L 0 15 L 5 0 Z" stroke-miterlimit="10" stroke-dasharray=""/></g><g transform="matrix(1,0,0,1,882.5952337763439,247.25045348389023)"/></g><g transform="matrix(1,0,0,1,1414,229)"/><g transform="matrix(1,0,0,1,120,229)"/><g transform="matrix(1,0,0,1,729.5,207)"/><g transform="matrix(1,0,0,1,279,207)"/><g transform="matrix(1,0,0,1,515,206)"/></g></g></svg>