<svg version="1.1" xmlns="http://www.w3.org/2000/svg" xmlns:xlink="http://www.w3.org/1999/xlink" width="1148" height="311" viewBox="0 0 1148 311"><defs/><g transform="matrix(1,0,0,1,0,0)"><g><g><g><path fill="none" stroke="#d3d3d3" paint-order="fill stroke markers" d=" M 0 0 L 1200 0" stroke-miterlimit="10" stroke-opacity="0.8" stroke-dasharray="5"/></g><g><path fill="none" stroke="#d3d3d3" paint-order="fill stroke markers" d=" M 0 0 L 0 800" stroke-miterlimit="10" stroke-opacity="0.8" stroke-dasharray="5"/></g></g><g id="_49852061-19AC-43B7-9E12-66843E2B4794" bpmn2nodeid="_49852061-19AC-43B7-9E12-66843E2B4794" transform="matrix(1,0,0,1,808,158.5)"><g><path fill="none" stroke="none"/></g><g transform="matrix(1,0,0,1,0,0)"><path fill="#ffffff" stroke="none" id="_49852061-19AC-43B7-9E12-66843E2B4794?shapeType=BACKGROUND" paint-order="stroke fill markers" d=" M 2 0 L 152 0 L 152 0 A 2 2 0 0 1 154 2 L 154 100 L 154 100 A 2 2 0 0 1 152 102 L 2 102 L 2 102 A 2 2 0 0 1 0 100 L 0 2 L 0 2.0000000000000004 A 2 2 0 0 1 1.9999999999999996 0 Z"/></g><g transform="matrix(1,0,0,1,0,0)"><path fill="none" stroke="#000000" id="_49852061-19AC-43B7-9E12-66843E2B4794?shapeType=BORDER&amp;renderType=STROKE" paint-order="fill stroke markers" d=" M 2 0 L 152 0 L 152 0 A 2 2 0 0 1 154 2 L 154 100 L 154 100 A 2 2 0 0 1 152 102 L 2 102 L 2 102 A 2 2 0 0 1 0 100 L 0 2 L 0 2.0000000000000004 A 2 2 0 0 1 1.9999999999999996 0 Z" stroke-miterlimit="10" stroke-width="1.5" stroke-dasharray=""/></g><g><g transform="matrix(0.06,0,0,0.06,9.4,9.4)"><g transform="matrix(1,0,0,1,0,0)"><path fill="#393f44" stroke="none" id="_49852061-19AC-43B7-9E12-66843E2B4794undefined" paint-order="stroke fill markers" d=" M 0 0 M 197.3 130.2 C 194.4 127.29999999999998 189.60000000000002 127.29999999999998 186.70000000000002 130.2 L 130.20000000000002 186.7 C 127.30000000000001 189.6 127.30000000000001 194.39999999999998 130.20000000000002 197.29999999999998 L 186.70000000000002 253.79999999999998 C 188.10000000000002 255.29999999999998 190.10000000000002 255.99999999999997 192.00000000000003 255.99999999999997 C 193.90000000000003 255.99999999999997 195.90000000000003 255.29999999999998 197.30000000000004 253.69999999999996 C 200.20000000000005 250.79999999999995 200.20000000000005 245.99999999999997 197.30000000000004 243.09999999999997 L 146.2 192 L 197.29999999999998 140.8 C 200.2 137.9 200.2 133.1 197.3 130.2 Z"/></g><g transform="matrix(1,0,0,1,0,0)"><path fill="#393f44" stroke="none" id="_49852061-19AC-43B7-9E12-66843E2B4794undefined" paint-order="stroke fill markers" d=" M 0 0 M 261.3 130.2 C 258.40000000000003 127.29999999999998 253.60000000000002 127.29999999999998 250.70000000000002 130.2 C 247.8 133.1 247.8 137.89999999999998 250.70000000000002 140.79999999999998 L 301.8 191.89999999999998 L 250.7 243 C 247.79999999999998 245.9 247.79999999999998 250.7 250.7 253.6 C 252.1 255.29999999999998 254.1 256 256 256 C 257.9 256 259.9 255.3 261.3 253.8 L 317.8 197.3 C 320.7 194.4 320.7 189.60000000000002 317.8 186.70000000000002 L 261.3 130.2 Z"/></g><g transform="matrix(1,0,0,1,0,0)"><path fill="#393f44" stroke="none" id="_49852061-19AC-43B7-9E12-66843E2B4794undefined" paint-order="stroke fill markers" d=" M 0 0 M 400 32 C 400 32 152.8 32 128 32 C 62 32 64 96 64 96 L 64 288 L 1 288 C 1 288 -4 416 78 416 L 320 416 C 368 416 384 368 384 336 C 384 314.2 384 224.4 384 160 L 448 160 L 448 96 C 448 96 449 32 400 32 Z M 0 0 M 78 383.9 C 68.5 383.9 61.6 381.09999999999997 55.5 374.9 C 43.4 362.4 37.5 339.59999999999997 34.9 320 L 256.9 320 C 257.09999999999997 322.7 257.29999999999995 325.4 257.59999999999997 328.2 C 259.99999999999994 351.59999999999997 264.7 370.09999999999997 271.9 383.9 L 78 383.9 L 78 383.9 Z M 0 0 M 352 336 C 352 345.9 349.6 360.3 342.9 371 C 337.2 380.1 330.4 384 320 384 C 285 384 288 288 288 288 L 96 288 L 96 96 L 96 95.9 L 96 95.10000000000001 C 96 90.60000000000001 97.6 78.30000000000001 104.7 71.20000000000002 C 106.5 69.40000000000002 111.9 64.00000000000001 128 64.00000000000001 L 356.5 64.00000000000001 C 354.4 72.80000000000001 352.8 81.80000000000001 352.2 89.9 C 352.2 90.5 352.09999999999997 91.10000000000001 352.09999999999997 91.7 C 352.09999999999997 92 352.09999999999997 92.3 352.09999999999997 92.60000000000001 C 352 94.8 352 96 352 96 L 352 160 L 352 336 Z"/></g></g></g><g transform="matrix(1,0,0,1,45,43.5)"><text fill="#000000" stroke="none" font-family="Open Sans" font-size="12pt" font-style="normal" font-weight="normal" text-decoration="normal" x="32" y="12" text-anchor="middle" dominant-baseline="alphabetic">Log Task</text></g></g><g transform="matrix(1,0,0,1,808,158.5)"/><g id="_83B3FDBE-3974-4FB9-92D7-B2BD50F4BF33" bpmn2nodeid="_83B3FDBE-3974-4FB9-92D7-B2BD50F4BF33" transform="matrix(1,0,0,1,1042,181.5)"><g><path fill="none" stroke="none"/></g><g transform="matrix(0.125,0,0,0.125,0,0)"><g transform="matrix(1,0,0,1,0,0)"><path fill="#fce7e7" stroke="none" id="_83B3FDBE-3974-4FB9-92D7-B2BD50F4BF33?shapeType=BACKGROUND" paint-order="stroke fill markers" d=" M 0 0 M 444 224 C 444 263.9 434.2 300.8 414.4 334.5 C 394.7 368.2 368 394.9 334.4 414.5 C 300.79999999999995 434.1 263.9 444 224 444 C 184.10000000000002 444 147.2 434.2 113.5 414.4 C 79.8 394.7 53.1 368 33.5 334.4 C 13.899999999999999 300.79999999999995 4 263.9 4 224 C 4 184.10000000000002 13.8 147.2 33.6 113.5 C 53.400000000000006 79.80000000000001 80.1 53.1 113.6 33.5 C 147.1 13.899999999999999 184.1 4 224 4 C 263.9 4 300.8 13.8 334.5 33.6 C 368.2 53.400000000000006 394.9 80.1 414.5 113.6 C 434.1 147.1 444 184.1 444 224 Z"/></g><g><g transform="matrix(1,0,0,1,0,0)"><g transform="matrix(1,0,0,1,0,0)"><path fill="#a30000" stroke="none" id="_83B3FDBE-3974-4FB9-92D7-B2BD50F4BF33?shapeType=BORDER&amp;renderType=FILL" paint-order="stroke fill markers" d=" M 0 0 M 224 0 C 100.3 0 0 100.3 0 224 C 0 347.7 100.3 448 224 448 C 347.7 448 448 347.7 448 224 C 448 100.30000000000001 347.7 0 224 0 Z M 0 0 M 224 400 C 126.8 400 48 321.2 48 224 C 48 126.80000000000001 126.8 48 224 48 C 321.2 48 400 126.8 400 224 C 400 321.2 321.2 400 224 400 Z"/></g></g></g></g><g transform="matrix(1,0,0,1,28,61)"/></g><g transform="matrix(1,0,0,1,1042,181.5)"/><g id="_89347133-3FF1-4EAD-A303-25AEAC057A78" bpmn2nodeid="_89347133-3FF1-4EAD-A303-25AEAC057A78" transform="matrix(1,0,0,1,575,159)"><g><path fill="none" stroke="none"/></g><g transform="matrix(1,0,0,1,0,0)"><path fill="#ffffff" stroke="none" id="_89347133-3FF1-4EAD-A303-25AEAC057A78?shapeType=BACKGROUND" paint-order="stroke fill markers" d=" M 2 0 L 151 0 L 151 0 A 2 2 0 0 1 153 2 L 153 99 L 153 99 A 2 2 0 0 1 151 101 L 2 101 L 2 101 A 2 2 0 0 1 0 99 L 0 2 L 0 2.0000000000000004 A 2 2 0 0 1 1.9999999999999996 0 Z"/></g><g transform="matrix(1,0,0,1,0,0)"><path fill="none" stroke="#393f44" id="_89347133-3FF1-4EAD-A303-25AEAC057A78?shapeType=BORDER&amp;renderType=STROKE" paint-order="fill stroke markers" d=" M 2 0 L 151 0 L 151 0 A 2 2 0 0 1 153 2 L 153 99 L 153 99 A 2 2 0 0 1 151 101 L 2 101 L 2 101 A 2 2 0 0 1 0 99 L 0 2 L 0 2.0000000000000004 A 2 2 0 0 1 1.9999999999999996 0 Z" stroke-miterlimit="10" stroke-width="1.5" stroke-dasharray=""/></g><g transform="matrix(1,0,0,1,1,10)"><g transform="matrix(1,0,0,1,0,0)"><g transform="matrix(1,0,0,1,63,66)"><path fill="none" stroke="#393f44" id="_89347133-3FF1-4EAD-A303-25AEAC057A78undefined" paint-order="fill stroke markers" d=" M 0 0 L 25 0 L 25 25 L 0 25 L 0 0 Z Z" stroke-miterlimit="10" stroke-width="1.5" stroke-dasharray=""/></g><g transform="matrix(0.04,0,0,0.04,68.64,69.6)"><path fill="#000000" stroke="#000000" id="_89347133-3FF1-4EAD-A303-25AEAC057A78undefined" paint-order="fill stroke markers" d=" M 0 0 M 352 184 L 352 232 C 352 238.7 349.7 244.3 345 249 C 340.3 253.7 334.7 256 328 256 L 224 256 L 224 360 C 224 366.7 221.7 372.3 217 377 C 212.3 381.7 206.7 384 200 384 L 152 384 C 145.3 384 139.7 381.7 135 377 C 130.3 372.3 128 366.7 128 360 L 128 256 L 24 256 C 17.3 256 11.7 253.7 7 249 C 2.3000000000000007 244.3 0 238.7 0 232 L 0 184 C 0 177.3 2.3 171.7 7 167 C 11.7 162.3 17.3 160 24 160 L 128 160 L 128 56 C 128 49.3 130.3 43.7 135 39 C 139.7 34.3 145.3 32 152 32 L 200 32 C 206.7 32 212.3 34.3 217 39 C 221.7 43.7 224 49.3 224 56 L 224 160 L 328 160 C 334.7 160 340.3 162.3 345 167 C 349.7 171.7 352 177.3 352 184 Z" stroke-miterlimit="10" stroke-dasharray=""/></g></g></g><g transform="matrix(1,0,0,1,12.82,10)"><g transform="matrix(1,0,0,1,0,0)"><g transform="matrix(1,0,0,1,63,66)"><path fill="none" stroke="none"/></g><g transform="matrix(0.04,0,0,0.04,68.64,69.6)"><path fill="none" stroke="none"/></g><g transform="matrix(0.04,0,0,0.04,40.32,71.04)"><path fill="none" stroke="none"/></g><g transform="matrix(0.04,0,0,0.04,39.36,72)"><path fill="none" stroke="none"/></g></g></g><g transform="matrix(1,0,0,1,14,43)"><text fill="#000000" stroke="none" font-family="Open Sans" font-size="12pt" font-style="normal" font-weight="normal" text-decoration="normal" x="62.5" y="12" text-anchor="middle" dominant-baseline="alphabetic">Call Sub-process</text></g></g><g transform="matrix(1,0,0,1,575,159)"/><g id="_BC3ECFA0-4977-47B6-BEC7-9A6BF1C86908" bpmn2nodeid="_BC3ECFA0-4977-47B6-BEC7-9A6BF1C86908" transform="matrix(1,0,0,1,408,182)"><g><path fill="none" stroke="none"/></g><g transform="matrix(0.125,0,0,0.125,0,0)"><g transform="matrix(1,0,0,1,0,0)"><path fill="#e8fae6" stroke="none" id="_BC3ECFA0-4977-47B6-BEC7-9A6BF1C86908?shapeType=BACKGROUND" paint-order="stroke fill markers" d=" M 0 0 M 444 224 C 444 263.9 434.2 300.8 414.4 334.5 C 394.7 368.2 368 394.9 334.4 414.5 C 300.79999999999995 434.1 263.9 444 224 444 C 184.10000000000002 444 147.2 434.2 113.5 414.4 C 79.8 394.7 53.1 368 33.5 334.4 C 13.899999999999999 300.79999999999995 4 263.9 4 224 C 4 184.10000000000002 13.8 147.2 33.6 113.5 C 53.400000000000006 79.80000000000001 80.1 53.1 113.6 33.5 C 147.1 13.899999999999999 184.1 4 224 4 C 263.9 4 300.8 13.8 334.5 33.6 C 368.2 53.400000000000006 394.9 80.1 414.5 113.6 C 434.1 147.1 444 184.1 444 224 Z"/></g><g><g transform="matrix(1,0,0,1,0,0)"><g transform="matrix(1,0,0,1,0,0)"><path fill="#4aa241" stroke="none" id="_BC3ECFA0-4977-47B6-BEC7-9A6BF1C86908?shapeType=BORDER&amp;renderType=FILL" paint-order="stroke fill markers" d=" M 0 0 M 224 0 C 100.3 0 0 100.3 0 224 C 0 347.7 100.3 448 224 448 C 347.7 448 448 347.7 448 224 C 448 100.30000000000001 347.7 0 224 0 Z M 0 0 M 224 432 C 109.1 432 16 338.9 16 224 C 16 109.10000000000002 109.1 16 224 16 C 338.9 16 432 109.1 432 224 C 432 338.9 338.9 432 224 432 Z"/></g></g></g></g><g transform="matrix(1,0,0,1,28,61)"/></g><g transform="matrix(1,0,0,1,408,182)"/><g id="_F6B9B0B3-9F58-4AE9-B798-B96560BF9F0A" bpmn2nodeid="_F6B9B0B3-9F58-4AE9-B798-B96560BF9F0A"><g><path fill="none" stroke="#000000" paint-order="fill stroke markers" d=" M 464 209.89928057553956 L 560.0000970437246 209.55395648545422" stroke-miterlimit="10" stroke-dasharray=""/></g><g transform="matrix(1,0,0,1,464,209.89928057553956)"/><g transform="matrix(0.0035970990302815805,0.9999935304183555,-0.9999935304183555,0.0035970990302815805,574.9820145048486,204.50003234790822)"><path fill="#000000" stroke="#000000" paint-order="fill stroke markers" d=" M 10 15 L 0 15 L 5 0 Z" stroke-miterlimit="10" stroke-dasharray=""/></g><g transform="matrix(1,0,0,1,464.0359709903028,199.69970498358623)"/></g><g id="_6E9F65C2-A12A-4CC1-ACB1-CE3C514BE39E" bpmn2nodeid="_6E9F65C2-A12A-4CC1-ACB1-CE3C514BE39E"><g><path fill="none" stroke="#000000" paint-order="fill stroke markers" d=" M 728 209.5 L 793 209.5" stroke-miterlimit="10" stroke-dasharray=""/></g><g transform="matrix(1,0,0,1,728,209.5)"/><g transform="matrix(6.123233995736766e-17,1,-1,6.123233995736766e-17,808,204.5)"><path fill="#000000" stroke="#000000" paint-order="fill stroke markers" d=" M 10 15 L 0 15 L 5 0 Z" stroke-miterlimit="10" stroke-dasharray=""/></g><g transform="matrix(1,0,0,1,728,199.5)"/></g><g id="_5544771B-00F3-400B-8230-9FA037357055" bpmn2nodeid="_5544771B-00F3-400B-8230-9FA037357055"><g><path fill="none" stroke="#000000" paint-order="fill stroke markers" d=" M 962 209.5 L 1027 209.5" stroke-miterlimit="10" stroke-dasharray=""/></g><g transform="matrix(1,0,0,1,962,209.5)"/><g transform="matrix(6.123233995736766e-17,1,-1,6.123233995736766e-17,1042,204.5)"><path fill="#000000" stroke="#000000" paint-order="fill stroke markers" d=" M 10 15 L 0 15 L 5 0 Z" stroke-miterlimit="10" stroke-dasharray=""/></g><g transform="matrix(1,0,0,1,962,199.5)"/></g></g></g></svg>